<?xml version="1.0" encoding="utf-8"?>
<!-- Generator: Adobe Illustrator 25.0.0, SVG Export Plug-In . SVG Version: 6.00 Build 0)  -->
<svg version="1.1" id="Layer_1" xmlns="http://www.w3.org/2000/svg" xmlns:xlink="http://www.w3.org/1999/xlink" x="0px" y="0px"
	 viewBox="0 0 829 733" style="enable-background:new 0 0 829 733;" xml:space="preserve">
<style type="text/css">
	.st0{fill:#AEEDFC;}
	.st1{fill:none;stroke:#1B1280;stroke-miterlimit:10;}
	.st2{fill:#1B1280;}
	.st3{font-family:'ClarendonWide-Medium';}
	.st4{font-size:26.9586px;}
</style>
<rect class="st0" width="829" height="733"/>
<path class="st1" d="M537.9,513.8c0,0-155.6,73.2-335.3-8.7c-37.2-17-57.6-57.5-49-97.5c41.6-193,193.2-274.1,193.2-274.1l0-0.2
	c0,0,73.5-34.5,175.7-26.1c121.2,10,188.7,144.3,124.3,247.5C592.5,441.7,521,480,521,480"/>
<g>
	<path class="st2" d="M445.5,135c36.7,0,71.2,7.6,105.5,23.1c48.5,22,83.9,56.8,105.2,103.6c17.3,38,25.2,82.9,23.3,133.6
		c-3.2,89.3-33.8,153.9-90.7,192.2c-47.6,31.9-103.6,38.6-142.2,38.6c-25.8,0-43.3-3-43.5-3.1c-0.8-0.1-80.6-13.6-155.4-51.5
		c-43.8-22.2-77.4-48.3-99.7-77.5c-27.9-36.5-38.2-78.1-30.8-123.6c4.8-29.5,15.8-57.8,32.7-84c17.1-26.5,39.7-50.2,67.4-70.6
		c37.2-27.4,83.2-49.6,136.6-66c27.3-8.4,52.8-13.1,77.9-14.4C436.4,135.1,441,135,445.5,135 M445.5,134c-4.6,0-9.1,0.1-13.7,0.4
		c-25.7,1.3-51.7,6.3-78.1,14.4c-50.3,15.4-97.7,37.3-136.9,66.2c-56.1,41.3-90.8,96-100.5,155.3C83.5,571.1,402.9,624,402.9,624
		s17.5,3.1,43.6,3.1c76.3,0,226.5-26.2,234-231.8c3.2-88.3-22.6-189.8-129.1-238.1C516.3,141.3,481.1,134,445.5,134L445.5,134z"/>
</g>
<text transform="matrix(1 0 0 1 349.8481 354.6543)"><tspan x="0" y="0" class="st2 st3 st4">Graphic </tspan><tspan x="11.3" y="32.4" class="st2 st3 st4">Design</tspan></text>
</svg>
