<?xml version="1.0" encoding="utf-8"?>
<!-- Generator: Adobe Illustrator 25.0.0, SVG Export Plug-In . SVG Version: 6.00 Build 0)  -->
<svg version="1.1" id="Layer_1" xmlns="http://www.w3.org/2000/svg" xmlns:xlink="http://www.w3.org/1999/xlink" x="0px" y="0px"
	 viewBox="0 0 829 733" style="enable-background:new 0 0 829 733;" xml:space="preserve">
<style type="text/css">
	.st0{fill:#17FFE4;}
	.st1{fill:#FFFFFF;}
	.st2{font-family:'ClarendonWide-Medium';}
	.st3{font-size:26.9586px;}
	.st4{fill:none;stroke:#FFFFFF;stroke-miterlimit:10;}
</style>
<rect class="st0" width="829" height="733"/>
<text transform="matrix(1 0 0 1 384.4761 354.6543)" class="st1 st2 st3">SEO</text>
<path class="st4" d="M163.9,376c-33-139,74-272.9,216.8-269c50.6,1.4,100,20.4,138.8,71.5c133,175,273,359,156,379s-421,115-468-25
	C190.8,482.9,176.1,427.2,163.9,376z"/>
<path class="st4" d="M91.3,416.9c14.1-35.1,48.8-69.3,72.6-97.6c30.8-36.7,63.7-71.6,99-104.1c51.2-47.2,112-95.5,181.5-111
	c56.2-12.5,108.4,6.1,145.1,50.3c174,210,89,616.8-99.9,560c-77.4-23.3-152.2-56.8-222.1-97.2c-57.8-33.4-121.2-73.3-160.2-129
	c-13.7-19.6-26-44.1-17.3-68.1C90.4,419.1,90.9,418,91.3,416.9z"/>
<path class="st4" d="M120.5,404.1c0,0,24.7-245.1,238.4-219.8s485.4,285.5,205.9,303.5C285.4,505.9,146.3,534.2,120.5,404.1z"/>
</svg>
