<?xml version="1.0" encoding="utf-8"?>
<!-- Generator: Adobe Illustrator 25.0.0, SVG Export Plug-In . SVG Version: 6.00 Build 0)  -->
<svg version="1.1" id="Layer_1" xmlns="http://www.w3.org/2000/svg" xmlns:xlink="http://www.w3.org/1999/xlink" x="0px" y="0px"
	 viewBox="0 0 829 733" style="enable-background:new 0 0 829 733;" xml:space="preserve">
<style type="text/css">
	.st0{fill:#1B1280;}
	.st1{fill:none;stroke:#FFFFFF;stroke-miterlimit:10;}
	.st2{fill:#FFFFFF;}
	.st3{font-family:'ClarendonWide-Medium';}
	.st4{font-size:26.9586px;}
</style>
<rect class="st0" width="829" height="733"/>
<path class="st1" d="M238.5,306.5c0,0,2.3-86.8,61.2-177.7c62.3-96.1,203.3-96.1,265.6,0c58.9,90.9,61.2,177.7,61.2,177.7"/>
<path class="st1" d="M470,134c0,0,81.1,2.1,168.7,55.5c103.9,63.3,103.9,213.6,0,277C551.1,519.9,470,522,470,522"/>
<path class="st1" d="M645.3,377.6c0,0-5.5,210.6-212.8,333.4C225.2,588.2,219.7,377.6,219.7,377.6"/>
<path class="st1" d="M376.9,540.8c0,0-171.9-4.5-295.7-158.2c-25.6-31.9-25.6-77.2,0-109.1C205,119.7,376.9,115.2,376.9,115.2"/>
<g>
	<path class="st2" d="M451.5,22.7c36.7,0,71.2,9.8,105.4,30c48.5,28.5,83.9,73.7,105.3,134.4c17.3,49.3,25.2,107.6,23.3,173.4
		c-3.2,115.9-33.8,199.9-90.8,249.5c-47.5,41.4-103.5,50.1-142.1,50.1c-25.7,0-43.2-3.9-43.4-4c-0.8-0.2-80.5-17.7-155.3-66.7
		c-43.9-28.8-77.4-62.6-99.8-100.6c-27.9-47.4-38.3-101.5-30.9-160.7C128,289.7,139,253,155.9,219c17.1-34.4,39.8-65.2,67.5-91.7
		C260.6,91.8,306.5,63,360,41.7c27.3-10.9,52.7-17,77.8-18.6C442.4,22.8,447,22.7,451.5,22.7 M451.5,21.7c-4.6,0-9.1,0.2-13.7,0.5
		c-25.7,1.7-51.7,8.2-78.1,18.7c-50.3,20-97.7,48.4-136.9,85.8c-56.1,53.6-90.8,124.5-100.5,201.4
		C89.5,588.5,408.9,657.1,408.9,657.1s17.5,4,43.6,4c76.3,0,226.5-34,234-300.6c3.2-114.5-22.6-246.1-129.1-308.7
		C522.3,31.1,487.1,21.7,451.5,21.7L451.5,21.7z"/>
</g>
<text transform="matrix(1 0 0 1 337.8789 354.6543)"><tspan x="0" y="0" class="st2 st3 st4">Web sites </tspan><tspan x="26.6" y="32.4" class="st2 st3 st4">&amp; apps</tspan></text>
</svg>
